<?xml version="1.0" encoding="UTF-8" ?>
<!DOCTYPE svg PUBLIC "-//W3C//DTD SVG 1.1//EN" "http://www.w3.org/Graphics/SVG/1.1/DTD/svg11.dtd">
<svg width="512pt" height="512pt" viewBox="0 0 512 512" version="1.1" xmlns="http://www.w3.org/2000/svg">
<g id="#2b2d42ff">
<path fill="#2b2d42" opacity="1.00" d=" M 138.02 47.06 C 176.70 25.10 221.59 14.25 266.03 16.21 C 304.98 17.77 343.51 29.04 377.09 48.84 C 429.72 79.47 469.88 130.83 486.56 189.42 C 503.06 245.79 497.73 308.21 471.82 360.93 C 469.64 365.29 467.63 369.76 464.79 373.74 C 455.72 355.90 446.83 337.96 437.90 320.04 C 443.24 320.01 448.58 320.02 453.92 319.96 C 467.33 278.74 467.34 233.26 453.92 192.04 C 426.58 191.99 399.24 191.94 371.90 192.07 C 372.53 199.02 373.57 205.93 374.07 212.90 C 364.08 207.75 352.30 206.28 341.35 208.76 C 341.16 203.16 340.30 197.63 339.58 192.09 C 283.85 191.94 228.11 191.94 172.39 192.09 C 166.59 234.44 166.60 277.56 172.32 319.91 C 203.58 320.13 234.84 319.91 266.11 320.03 C 260.81 330.71 255.49 341.37 250.12 352.02 C 226.15 352.01 202.18 351.96 178.22 352.04 C 184.64 380.18 194.36 407.96 210.38 432.16 C 205.72 445.19 206.89 460.20 213.86 472.19 C 220.58 484.29 232.84 492.73 246.25 495.69 C 195.43 494.00 145.46 475.02 105.89 443.14 C 76.32 419.42 52.43 388.64 36.96 354.03 C 20.35 317.18 13.40 276.08 16.85 235.82 C 19.77 200.08 31.00 165.07 49.25 134.20 C 70.56 98.07 101.48 67.67 138.02 47.06 M 230.02 58.05 C 218.60 67.21 210.35 79.59 203.19 92.19 C 191.49 113.34 183.91 136.51 178.36 159.96 C 230.08 160.03 281.80 160.02 333.53 159.96 C 329.14 140.53 323.00 121.45 314.55 103.39 C 307.21 87.99 298.15 73.10 285.66 61.32 C 278.12 54.27 268.60 48.67 258.09 48.07 C 247.84 47.37 237.87 51.70 230.02 58.05 M 71.62 159.94 C 96.33 160.03 121.04 160.06 145.75 159.93 C 153.27 125.05 165.00 90.53 184.92 60.68 C 136.46 77.87 95.17 114.27 71.62 159.94 M 327.09 60.66 C 346.96 90.54 358.81 125.01 366.25 159.91 C 390.96 160.09 415.67 160.02 440.39 159.94 C 416.81 114.29 375.55 77.87 327.09 60.66 M 58.09 192.04 C 44.64 233.25 44.64 278.75 58.09 319.96 C 85.46 320.03 112.82 320.02 140.19 319.97 C 134.68 277.56 134.70 234.48 140.12 192.06 C 112.78 191.94 85.43 191.99 58.09 192.04 M 71.62 352.06 C 95.20 397.77 136.54 434.17 185.05 451.37 C 165.38 421.35 153.38 386.97 145.87 352.04 C 121.12 351.98 96.37 351.95 71.62 352.06 Z" />
</g>
<g id="#ee243aff">
<path fill="#ee243a" opacity="1.00" d=" M 341.35 208.76 C 352.30 206.28 364.08 207.75 374.07 212.90 C 383.22 217.67 390.73 225.43 395.24 234.71 C 409.45 263.16 423.69 291.59 437.90 320.04 C 446.83 337.96 455.72 355.90 464.79 373.74 C 473.66 391.65 482.67 409.49 491.56 427.39 C 497.66 439.76 498.04 454.78 492.51 467.43 C 485.38 484.57 467.53 496.44 448.97 496.43 C 385.98 496.52 322.99 496.43 260.00 496.47 C 255.41 496.47 250.79 496.41 246.25 495.69 C 232.84 492.73 220.58 484.29 213.86 472.19 C 206.89 460.20 205.72 445.19 210.38 432.16 C 211.77 428.44 213.66 424.94 215.41 421.39 C 227.00 398.27 238.53 375.13 250.12 352.02 C 255.49 341.37 260.81 330.71 266.11 320.03 C 279.31 293.59 292.55 267.16 305.75 240.73 C 308.06 236.13 310.20 231.41 313.26 227.25 C 319.98 217.96 330.17 211.29 341.35 208.76 M 347.32 240.27 C 342.81 241.57 339.20 245.06 337.25 249.27 C 305.37 313.06 273.47 376.85 241.57 440.64 C 236.09 449.64 242.24 463.07 252.95 463.93 C 264.28 464.88 275.65 464.31 287.00 464.47 C 340.67 464.46 394.34 464.49 448.01 464.45 C 454.33 464.65 460.51 460.76 463.04 454.97 C 465.13 450.42 464.77 444.98 462.42 440.60 C 431.41 378.61 400.41 316.61 369.42 254.61 C 367.72 251.35 366.37 247.83 363.98 244.99 C 360.01 240.30 353.15 238.44 347.32 240.27 Z" />
<path fill="#ee243a" opacity="1.00" d=" M 349.32 288.22 C 359.49 286.11 369.28 295.82 368.02 305.97 C 367.96 332.01 368.05 358.06 367.98 384.10 C 368.12 392.21 361.12 399.58 353.04 399.96 C 344.22 400.74 335.79 392.93 336.01 384.06 C 335.99 357.35 335.99 330.65 336.01 303.94 C 335.88 296.37 341.83 289.36 349.32 288.22 Z" />
<path fill="#ee243a" opacity="1.00" d=" M 349.31 416.22 C 358.67 414.29 368.23 422.52 367.99 432.00 C 368.19 440.52 360.51 448.18 352.00 447.99 C 343.17 448.17 335.27 439.92 336.01 431.08 C 336.33 423.82 342.13 417.32 349.31 416.22 Z" />
</g>
</svg>
